<svg width="173" height="178" viewBox="0 0 173 178" fill="none" xmlns="http://www.w3.org/2000/svg">
<mask id="path-1-outside-1_2_24" maskUnits="userSpaceOnUse" x="-6.65491" y="31.3401" width="133.759" height="152.402" fill="black">
<rect fill="white" x="-6.65491" y="31.3401" width="133.759" height="152.402"/>
<path fill-rule="evenodd" clip-rule="evenodd" d="M119.021 140.819C92.8875 146.673 65.2696 133.893 53.3709 108.659C42.5058 85.6162 47.992 59.0687 65.1251 42.1149C60.9946 43.0401 56.9012 44.4309 52.9128 46.3115C23.6899 60.0908 11.1703 94.951 24.9496 124.174C38.7289 153.397 73.5891 165.916 102.812 152.137C108.992 149.223 114.426 145.366 119.021 140.819Z"/>
</mask>
<path fill-rule="evenodd" clip-rule="evenodd" d="M119.021 140.819C92.8875 146.673 65.2696 133.893 53.3709 108.659C42.5058 85.6162 47.992 59.0687 65.1251 42.1149C60.9946 43.0401 56.9012 44.4309 52.9128 46.3115C23.6899 60.0908 11.1703 94.951 24.9496 124.174C38.7289 153.397 73.5891 165.916 102.812 152.137C108.992 149.223 114.426 145.366 119.021 140.819Z" fill="#192B45"/>
<path d="M119.021 140.819L122.538 144.373C124.123 142.805 124.478 140.377 123.408 138.42C122.339 136.464 120.104 135.452 117.928 135.94L119.021 140.819ZM65.1251 42.1149L68.642 45.669C70.2268 44.1008 70.5818 41.6729 69.5124 39.7166C68.4431 37.7604 66.2077 36.7484 64.0322 37.2358L65.1251 42.1149ZM117.928 135.94C94.0291 141.293 68.7724 129.598 57.8934 106.526L48.8485 110.791C61.7668 138.188 91.7459 152.052 120.114 145.698L117.928 135.94ZM57.8934 106.526C47.9603 85.4602 52.9681 61.1787 68.642 45.669L61.6082 38.5608C43.0158 56.9586 37.0514 85.7721 48.8485 110.791L57.8934 106.526ZM55.0453 50.834C58.6991 49.1111 62.4437 47.8394 66.2181 46.9939L64.0322 37.2358C59.5455 38.2408 55.1033 39.7507 50.7804 41.789L55.0453 50.834ZM29.4721 122.041C16.8705 95.3162 28.32 63.4355 55.0453 50.834L50.7804 41.789C19.0597 56.746 5.47014 94.5857 20.4271 126.306L29.4721 122.041ZM100.68 147.615C73.9543 160.216 42.0736 148.767 29.4721 122.041L20.4271 126.306C35.3842 158.027 73.2239 171.617 104.944 156.66L100.68 147.615ZM115.504 137.264C111.306 141.418 106.34 144.946 100.68 147.615L104.944 156.66C111.645 153.5 117.545 149.313 122.538 144.373L115.504 137.264Z" fill="#192B45" mask="url(#path-1-outside-1_2_24)"/>
<path d="M103.006 6.31374C103.949 3.64969 107.717 3.64968 108.661 6.31374L112.55 17.2904C112.853 18.1432 113.523 18.814 114.376 19.1162L125.353 23.0056C128.017 23.9495 128.017 27.7171 125.353 28.661L114.376 32.5504C113.523 32.8526 112.853 33.5235 112.55 34.3762L108.661 45.3529C107.717 48.0169 103.949 48.0169 103.006 45.3529L99.1161 34.3762C98.814 33.5235 98.1431 32.8526 97.2903 32.5504L86.3137 28.661C83.6496 27.7171 83.6496 23.9495 86.3137 23.0056L97.2903 19.1162C98.1431 18.814 98.814 18.1432 99.1161 17.2904L103.006 6.31374Z" fill="#9AA3B0"/>
<path d="M138.096 41.7683C139.04 39.1043 142.808 39.1043 143.752 41.7683L149.996 59.3903C150.298 60.2431 150.969 60.9139 151.822 61.2161L169.444 67.4602C172.108 68.4041 172.108 72.1717 169.444 73.1156L151.822 79.3597C150.969 79.6619 150.298 80.3327 149.996 81.1855L143.752 98.8075C142.808 101.472 139.04 101.472 138.096 98.8075L131.852 81.1855C131.55 80.3327 130.879 79.6619 130.027 79.3597L112.405 73.1156C109.741 72.1717 109.741 68.4041 112.405 67.4602L130.027 61.2161C130.879 60.9139 131.55 60.2431 131.852 59.3903L138.096 41.7683Z" fill="#9AA3B0"/>
</svg>
